<?xml version="1.0" encoding="UTF-8" standalone="no"?>
<svg width="162px" height="160px" viewBox="0 0 162 160" version="1.1" xmlns="http://www.w3.org/2000/svg" xmlns:xlink="http://www.w3.org/1999/xlink" xmlns:sketch="http://www.bohemiancoding.com/sketch/ns">
    <title>Artboard 1</title>
    <description>Created with Sketch (http://www.bohemiancoding.com/sketch)</description>
    <defs></defs>
    <g id="Page-1" stroke="none" stroke-width="1" fill="none" fill-rule="evenodd" sketch:type="MSPage">
        <g id="Artboard-1" sketch:type="MSArtboardGroup" stroke="#000000" stroke-width="2">
            <g id="speedometer" sketch:type="MSLayerGroup" transform="translate(1.000000, 1.000000)">
                <path d="M90.853549,73.4621849 C88.873592,69.8151261 84.6589888,67.4448857 84.6589888,67.4448857 L132.150617,50.0168067 L92.8335059,82.3193277 C92.8335059,82.3193277 92.8335058,77.1092437 90.853549,73.4621849 Z" id="Shape" sketch:type="MSShapeGroup"></path>
                <path d="M66.0753083,79.9747899 C66.0753083,87.3085042 71.962657,93.2605042 79.2387487,93.2605042 C86.5148403,93.2605042 92.402189,87.3085042 92.402189,79.9747899 C92.402189,72.6377542 86.5148403,66.6890756 79.2387487,66.6890756 C71.962657,66.6890756 66.0753083,72.6410756 66.0753083,79.9747899 Z" id="Shape" sketch:type="MSShapeGroup"></path>
                <path d="M145.135673,124.521008 C153.561393,111.798108 158.477497,96.5072832 158.477497,80.0392148 C158.477497,35.8042087 123.031364,0 79.2387487,0 C35.4461336,0 0,35.8042087 0,80.0392148 C0,96.5006133 4.91280242,111.791438 13.3286178,124.500999" id="Shape" sketch:type="MSShapeGroup"></path>
                <path d="M158.477497,79.7142857 L148.669444,79.7142857" id="Shape" sketch:type="MSShapeGroup"></path>
                <path d="M0,79.7142857 L9.80805358,79.7142857" id="Shape" sketch:type="MSShapeGroup"></path>
                <path d="M79.4968553,0 L79.4968553,9.89915966" id="Shape" sketch:type="MSShapeGroup"></path>
                <path d="M39.7484277,10.4201681 L44.9105611,18.7563025" id="Shape" sketch:type="MSShapeGroup"></path>
                <path d="M147.637017,119.831933 L139.377604,114.621849" id="Shape" sketch:type="MSShapeGroup"></path>
                <path d="M10.8404803,39.5966387 L19.0998938,44.8067227" id="Shape" sketch:type="MSShapeGroup"></path>
                <path d="M10.8404803,119.831933 L19.0998938,114.621849" id="Shape" sketch:type="MSShapeGroup"></path>
                <path d="M147.637017,39.5966387 L139.377604,44.8067227" id="Shape" sketch:type="MSShapeGroup"></path>
                <path d="M119.245283,10.4201681 L114.08315,18.7563025" id="Shape" sketch:type="MSShapeGroup"></path>
                <rect id="Rectangle" sketch:type="MSShapeGroup" x="46.4592012" y="109.932773" width="66.0753083" height="13.5462185"></rect>
            </g>
        </g>
    </g>
</svg>